# AST/ASF file generated using VICON BodyLanguage
# -----------------------------------------------
:version 1.10
:name VICON
:units
  mass 1.0
  length 0.45
  angle deg
:documentation
   .ast/.asf automatically generated from VICON data using
   VICON BodyBuilder and BodyLanguage model FoxedUp or BRILLIANT.MOD
:root
   order TX TY TZ RX RY RZ
   axis XYZ
   position 0 0 0  
   orientation 0 0 0 
:bonedata
  begin
     id 1 
     name lhipjoint
     direction 0.499407 -0.589134 0.635228 
     length 2.99786 
     axis 0 0 0  XYZ
  end
  begin
     id 2 
     name lfemur
     direction 0.34202 -0.939693 0  
     length 6.89561  
     axis 0 0 20  XYZ
    dof rx ry rz
    limits (-160.0 20.0)
           (-70.0 70.0)
           (-60.0 70.0)
  end
  begin
     id 3 
     name ltibia
     direction 0.34202 -0.939693 0   
     length 8.00494   
     axis 0 0 20   XYZ
    dof rx
    limits (-10.0 170.0)
  end
  begin
     id 4 
     name lfoot
     direction 0.0680929 -0.194353 0.978565   
     length 2.06695   
     axis -90 7.62852e-016 20   XYZ
    dof rx rz
    limits (-45.0 90.0)
           (-70.0 20.0)
  end
  begin
     id 5 
     name ltoes
     direction 1.5346e-011 -4.21731e-011 1   
     length 1.04539   
     axis -90 7.62852e-016 20   XYZ
    dof rx
    limits (-90.0 20.0)
  end
  begin
     id 6 
     name rhipjoint
     direction -0.347526 -0.63762 0.687508   
     length 2.76989  
     axis 0 0 0  XYZ 
  end
  begin
     id 7 
     name rfemur
     direction -0.34202 -0.939693 0   
     length 6.97892   
     axis 0 0 -20   XYZ
    dof rx ry rz
    limits (-160.0 20.0)
           (-70.0 70.0)
           (-70.0 60.0)
  end
  begin
     id 8 
     name rtibia
     direction -0.34202 -0.939693 0   
     length 7.77056   
     axis 0 0 -20   XYZ
    dof rx
    limits (-10.0 170.0)
 end
 begin
     id 9 
     name rfoot
     direction -0.102685 -0.282124 0.953867   
     length 2.15099  
     axis -90 -7.62852e-016 -20   XYZ
    dof rx rz
    limits (-45.0 90.0)
           (-20.0 70.0)
  end
  begin
     id 10 
     name rtoes
     direction -0.000106751 -0.00118973 0.999999   
     length 1.0765   
     axis -90 -7.62852e-016 -20   XYZ
    dof rx
    limits (-90.0 20.0)
  end
  begin
     id 11 
     name lowerback
     direction -0.0190651 0.988667 0.148909   
     length 1.90627   
     axis 0 0 0   XYZ
    dof rx ry rz
    limits (-20.0 45.0)
           (-30.0 30.0)
           (-30.0 30.0)
  end
  begin
     id 12 
     name upperback
     direction -0.0180344 0.995767 -0.0901298   
     length 1.88167   
     axis 0 0 0   XYZ
    dof rx ry rz
    limits (-20.0 45.0)
           (-30.0 30.0)
           (-30.0 30.0)
  end
  begin
     id 13 
     name thorax
     direction -0.00329861 0.986394 -0.164366   
     length 1.91528   
     axis 0 0 0   XYZ
    dof rx ry rz
    limits (-20.0 45.0)
           (-30.0 30.0)
           (-30.0 30.0)
  end
  begin
     id 14 
     name lowerneck
     direction -0.0177752 0.978637 -0.204826   
     length 2.09812   
     axis 0 0 0   XYZ
    dof rx ry rz
    limits (-20.0 45.0)
           (-30.0 30.0)
           (-30.0 30.0)
  end
  begin
     id 15 
     name upperneck
     direction 0.108032 0.994134 0.00511541   
     length 2.11937   
     axis 0 0 0   XYZ
    dof rx ry rz
    limits (-20.0 45.0)
           (-30.0 30.0)
           (-30.0 30.0)
  end
  begin
     id 16
     name head
     direction 0.0423659 0.998938 0.0181058  
     length 2.14816  
     axis 0 0 0   XYZ
    dof rx ry rz
    limits (-20.0 45.0)
           (-30.0 30.0)
           (-30.0 30.0)
  end
  begin
     id 17 
     name lclavicle
     direction 0.869509 0.396908 0.293968  
     length 4.73713  
     axis 0 0 0   XYZ
    dof ry rz
    limits (-20.0 10.0)
           (0.0 20.0)
  end
  begin
     id 18 
     name lhumerus
     direction 1 -4.49e-011 3.63829e-027   
     length 4.72096   
     axis 180 -30 -90   XYZ
    dof rx ry rz
    limits (-60.0 90.0)
           (-90.0 90.0)
           (-90.0 90.0)
  end
  begin
     id 19
     name lradius
     direction 1 -4.48932e-011 7.19196e-027   
     length 3.18148   
     axis 180 -30 -90   XYZ
    dof rx
    limits (-10.0 170.0)
  end
  begin
     id 20
     name lwrist
     direction 1 -4.48995e-011 1.85462e-026   
     length 1.59074   
     axis -1.20349e-014 90 90   XYZ
    dof ry
    limits (-180.0 0.0)
 end
  begin
     id 21 
     name lhand
     direction 1 -4.48943e-011 3.70924e-026   
     length 0.848715   
     axis -2.36681e-014 90 90   XYZ
    dof rx rz
    limits (-90.0 90.0)
           (-45.0 45.0)
  end
  begin
     id 22 
     name lfingers
     direction 1 -4.48949e-011 7.41849e-026   
     length 0.684256   
     axis -4.73363e-014 90 90   XYZ
    dof rx
    limits (0.0 90.0)
  end
  begin
     id 23
     name lthumb
     direction 0.707107 -6.35018e-011 0.707107   
     length 0.982458   
     axis -90 45 2.85299e-015   XYZ
    dof rx rz
    limits (-45.0 45.0)
           (-45.0 45.0)
  end
  begin
     id 24 
     name rclavicle
     direction -0.923214 0.372787 0.0932992   
     length 4.28107  
     axis 0 0 0   XYZ 
    dof ry rz
    limits (-10.0 20.0)
           (-20.0 0.0)
  end
  begin
     id 25 
     name rhumerus
     direction -1 -4.48968e-011 6.59881e-018  
     length 4.76918   
     axis 180 30 90   XYZ
    dof rx ry rz
    limits (-90.0 60.0)
           (-90.0 90.0)
           (-90.0 90.0)
  end
  begin
     id 26 
     name rradius
     direction -1 0.000264575 -0.000152753   
     length 3.36438   
     axis 180 30 90   XYZ
    dof rx
    limits (-10.0 170.0)
  end
  begin
     id 27 
     name rwrist
     direction -1 -4.86632e-005 -0.00030086   
     length 1.68219   
     axis -1.20349e-014 -90 -90   XYZ
    dof ry
    limits (-180.0 0.0)
  end
  begin
     id 28
     name rhand
     direction -1 -4.48915e-011 3.70924e-026   
     length 0.767694   
     axis -2.36681e-014 -90 -90   XYZ
    dof rx rz
    limits (-90.0 90.0)
           (-45.0 45.0)
  end
  begin
     id 29
     name rfingers
     direction -1 -4.49015e-011 7.41849e-026   
     length 0.618935   
     axis -4.73363e-014 -90 -90   XYZ
    dof rx
    limits (0.0 90.0)
  end
  begin
     id 30
     name rthumb
     direction -0.707107 -6.34859e-011 0.707107   
     length 0.88867   
     axis -90 -45 -2.85299e-015   XYZ
    dof rx rz
    limits (-45.0 45.0)
           (-45.0 45.0)
  end
:hierarchy
  begin
    root lhipjoint rhipjoint lowerback
    lhipjoint lfemur
    lfemur ltibia
    ltibia lfoot
    lfoot ltoes
    rhipjoint rfemur
    rfemur rtibia
    rtibia rfoot
    rfoot rtoes
    lowerback upperback
    upperback thorax
    thorax lowerneck lclavicle rclavicle
    lowerneck upperneck
    upperneck head
    lclavicle lhumerus
    lhumerus lradius
    lradius lwrist
    lwrist lhand lthumb
    lhand lfingers
    rclavicle rhumerus
    rhumerus rradius
    rradius rwrist
    rwrist rhand rthumb
    rhand rfingers
  end

#!OML:ASF C:\Documents and Settings\Administrator\Desktop\New Folder (2)\VR_Jason.ASF
:FULLY-SPECIFIED
:DEGREES
71
root -0.790552 17.5069 0.0785942 11.1248 -7.70476 3.21129
lowerback -22.1164 1.64737 -2.05768
upperback 5.66192 3.24275 -2.19162
thorax 18.7148 1.32918 -0.0881528
lowerneck 17.0361 -3.7254 -7.41822
upperneck 5.49803 -6.23989 11.6031
head -0.498141 -3.52574 5.06712
rclavicle 3.77691e-014 -2.42517e-014
rhumerus -20.7867 -63.7871 -63.6891
rradius 33.5132
rwrist 7.31527
rhand -21.067 23.159
rfingers 7.12502
rthumb 5.30965 -6.75449
lclavicle 3.77691e-014 -2.42517e-014
lhumerus -10.2669 51.4562 67.0014
lradius 41.5173
lwrist 1.75311
lhand -22.5493 32.2572
lfingers 7.12502
lthumb 3.87833 62.2016
rfemur -21.1592 -8.48818 9.98865
rtibia 29.5462
rfoot -16.1782 -13.5685
rtoes -19.2916
lfemur -12.6305 -10.2354 -16.2319
ltibia 19.6141
lfoot -27.9107 23.3588
ltoes 3.02249
72
root -0.787674 17.5055 0.0777388 11.101 -7.66389 3.13539
lowerback -22.166 1.68317 -1.92553
upperback 5.62457 3.25055 -2.18391
thorax 18.7041 1.34713 -0.149435
lowerneck 17.1974 -3.7113 -7.61052
upperneck 6.2723 -6.32242 11.6262
head -0.277673 -3.56543 5.10414
rclavicle 1.14301e-014 1.5704e-014
rhumerus -21.0297 -63.5835 -63.4259
rradius 33.4784
rwrist 7.14832
rhand -21.0414 22.9635
rfingers 7.12502
rthumb 5.33437 -6.94932
lclavicle 1.14301e-014 1.5704e-014
lhumerus -10.391 51.3201 66.8738
lradius 41.4155
lwrist 1.77039
lhand -22.6723 32.3397
lfingers 7.12502
lthumb 3.75955 62.2863
rfemur -21.1068 -8.71316 10.066
rtibia 29.5314
rfoot -16.2092 -13.3617
rtoes -19.2892
lfemur -12.6072 -10.3266 -16.1735
ltibia 19.6438
lfoot -27.9565 23.4363
ltoes 3.51188
73
root -0.787373 17.5041 0.0776906 11.0531 -7.54411 3.07417
lowerback -22.2573 1.6824 -1.84645
upperback 5.67701 3.23238 -2.18672
thorax 18.8271 1.34619 -0.199965
lowerneck 16.8103 -3.8189 -7.43591
upperneck 7.33989 -6.48901 11.2039
head 0.100336 -3.61128 4.92277
rclavicle 4.37326e-015 -7.95139e-016
rhumerus -21.0165 -63.2965 -63.4921
rradius 33.5482
rwrist 6.78702
rhand -20.8788 22.6073
rfingers 7.12502
rthumb 5.49142 -7.30155
lclavicle 4.37326e-015 -7.95139e-016
lhumerus -10.1541 51.4314 67.0315
lradius 41.3078
lwrist 1.56978
lhand -22.5888 32.2911
lfingers 7.12502
lthumb 3.84018 62.2362
rfemur -21.0034 -8.84517 10.1302
rtibia 29.5102
rfoot -16.214 -13.3337
rtoes -19.3003
lfemur -12.5783 -10.2956 -16.114
ltibia 19.6784
lfoot -27.8621 23.3023
ltoes 3.04824
74
root -0.786855 17.5022 0.0775309 10.9993 -7.48108 3.1136
lowerback -22.2674 1.69142 -1.86748
upperback 5.68035 3.2584 -2.22458
thorax 18.8388 1.35766 -0.22042
lowerneck 15.8667 -4.01943 -6.95758
upperneck 8.99603 -6.72435 10.2574
head 0.721182 -3.65655 4.50694
rclavicle -5.46658e-016 -1.43125e-014
rhumerus -21.1206 -62.9798 -63.4449
rradius 33.5722
rwrist 6.32001
rhand -21.0021 22.4065
rfingers 7.12502
rthumb 5.37229 -7.50538
lclavicle -5.46658e-016 -1.43125e-014
lhumerus -10.156 51.3234 67.0311
lradius 41.304
lwrist 1.59943
lhand -22.2905 32.022
lfingers 7.12502
lthumb 4.12828 61.9617
rfemur -20.9139 -8.81757 10.0735
rtibia 29.4879
rfoot -16.2243 -13.4218
rtoes -19.2448
lfemur -12.5651 -10.345 -16.1609
ltibia 19.7192
lfoot -27.8651 23.2357
ltoes 2.54701
75
root -0.786879 17.5007 0.0787048 10.9139 -7.40833 3.18122
lowerback -22.2129 1.69148 -1.93516
upperback 5.61302 3.27766 -2.24822
thorax 18.721 1.36219 -0.204417
lowerneck 17.2068 -3.82259 -7.56215
upperneck 9.03646 -6.64581 10.8499
head 0.560221 -3.67794 4.83269
rclavicle -8.44835e-015 9.93923e-016
rhumerus -21.4858 -62.7495 -63.0858
rradius 33.4425
rwrist 6.19595
rhand -21.5409 22.3971
rfingers 7.12502
rthumb 4.85209 -7.52733
lclavicle -8.44835e-015 9.93923e-016
lhumerus -10.556 50.9247 66.7644
lradius 41.3979
lwrist 1.84507
lhand -22.0405 31.6262
lfingers 7.12502
lthumb 4.36969 61.5611
rfemur -20.7791 -8.80167 9.98071
rtibia 29.4671
rfoot -16.2436 -13.511
rtoes -19.2272
lfemur -12.5135 -10.479 -16.2355
ltibia 19.7475
lfoot -27.9715 23.1648
ltoes 3.05442
76
root -0.791155 17.4994 0.0787932 10.83 -7.23519 3.20808
lowerback -22.216 1.64868 -2.00362
upperback 5.60483 3.24486 -2.2757
thorax 18.7104 1.34249 -0.209071
lowerneck 15.2701 -4.19179 -6.96204
upperneck 11.8192 -7.07078 9.37828
head 1.66433 -3.77951 4.19726
rclavicle 2.5345e-015 4.23411e-014
rhumerus -21.5195 -62.8116 -63.0729
rradius 33.2198
rwrist 6.3458
rhand -22.1822 22.3832
rfingers 7.12502
rthumb 4.2328 -7.55448
lclavicle 2.5345e-015 4.23411e-014
lhumerus -10.5739 50.7865 66.7751
lradius 41.3967
lwrist 1.75172
lhand -21.9672 31.2848
lfingers 7.12502
lthumb 4.44041 61.2183
rfemur -20.6254 -8.81232 9.95817
rtibia 29.4548
rfoot -16.2732 -13.6572
rtoes -19.2061
lfemur -12.4752 -10.2964 -16.2412
ltibia 19.7593
lfoot -27.6321 23.0316
ltoes 2.5985
77
root -0.797068 17.4995 0.0776318 10.7687 -7.07137 3.16382
lowerback -22.276 1.61569 -2.04682
upperback 5.66634 3.21451 -2.25332
thorax 18.8172 1.32062 -0.168614
lowerneck 15.9363 -4.13197 -7.40824
upperneck 12.2631 -7.12379 9.54871
head 1.72386 -3.83588 4.34253
rclavicle 9.83984e-015 1.98785e-016
rhumerus -21.2081 -63.1594 -63.297
rradius 32.9649
rwrist 6.44959
rhand -22.3211 22.3867
rfingers 7.12502
rthumb 4.0987 -7.55359
lclavicle 9.83984e-015 1.98785e-016
lhumerus -10.2973 50.7436 67.1367
lradius 41.4502
lwrist 1.65188
lhand -22.1214 31.5015
lfingers 7.12502
lthumb 4.29153 61.438
rfemur -20.4847 -8.51502 10.007
rtibia 29.4408
rfoot -16.3214 -14.0738
rtoes -19.0811
lfemur -12.4579 -10.0378 -16.1605
ltibia 19.7691
lfoot -26.9541 23.1391
ltoes 0.506663
78
root -0.801619 17.4984 0.0740464 10.7191 -6.87016 3.14513
lowerback -22.2206 1.57576 -2.10133
upperback 5.63767 3.16793 -2.22488
thorax 18.7441 1.29361 -0.1258
lowerneck 16.0955 -4.13303 -7.626
upperneck 13.2705 -7.20429 9.22824
head 2.01214 -3.88161 4.27771
rclavicle 7.90169e-015 1.35174e-014
rhumerus -21.3122 -63.6266 -63.0993
rradius 32.7348
rwrist 6.84682
rhand -21.9904 22.5211
rfingers 7.12502
rthumb 4.41807 -7.41281
lclavicle 7.90169e-015 1.35174e-014
lhumerus -10.3492 50.5758 67.1808
lradius 41.4716
lwrist 1.68208
lhand -22.3024 31.9366
lfingers 7.12502
lthumb 4.11675 61.8766
rfemur -20.3388 -8.16364 10.0176
rtibia 29.4176
rfoot -16.3861 -14.5614
rtoes -18.8931
lfemur -12.469 -9.77184 -16.1147
ltibia 19.7956
lfoot -26.4453 23.017
ltoes -0.617452
79
root -0.804669 17.4966 0.0668831 10.6742 -6.6209 3.12514
lowerback -22.1492 1.51485 -2.16395
upperback 5.25946 3.07425 -2.1388
thorax 18.8694 1.26729 -0.147695
lowerneck 16.255 -4.13908 -7.71208
upperneck 14.3816 -7.25251 8.65479
head 2.32066 -3.9096 4.11136
rclavicle -4.96962e-017 -3.20043e-014
rhumerus -21.7179 -63.3601 -62.7535
rradius 32.696
rwrist 6.87044
rhand -22.0076 22.4055
rfingers 7.12502
rthumb 4.4014 -7.52881
lclavicle -4.96962e-017 -3.20043e-014
lhumerus -10.5527 50.6225 66.9814
lradius 41.325
lwrist 1.48219
lhand -22.2008 32.0061
lfingers 7.12502
lthumb 4.21491 61.9442
rfemur -20.2036 -8.0089 10.0434
rtibia 29.3727
rfoot -16.387 -14.928
rtoes -18.8548
lfemur -12.5059 -9.52523 -16.069
ltibia 19.8504
lfoot -26.3126 22.6046
ltoes -0.430577
80
root -0.804292 17.4971 0.0643853 10.6355 -6.47152 3.11298
lowerback -22.0972 1.50124 -2.18466
upperback 5.18981 3.05241 -2.11602
thorax 18.744 1.25548 -0.118246
lowerneck 16.2383 -4.18793 -7.89066
upperneck 15.683 -7.35525 8.02042
head 2.72091 -3.9695 3.93509
rclavicle 4.78574e-014 -2.40529e-014
rhumerus -21.9462 -62.6988 -62.5879
rradius 32.7071
rwrist 6.46215
rhand -22.1901 22.2731
rfingers 7.12502
rthumb 4.22523 -7.66475
lclavicle 4.78574e-014 -2.40529e-014
lhumerus -10.6042 50.6773 67.0254
lradius 41.234
lwrist 1.48737
lhand -22.1984 31.8172
lfingers 7.12502
lthumb 4.21716 61.7552
rfemur -20.1048 -8.09579 10.056
rtibia 29.3227
rfoot -16.3562 -14.9805
rtoes -18.9027
lfemur -12.5482 -9.78527 -16.0321
ltibia 19.9152
lfoot -26.5788 22.5644
ltoes 0.170494
81
root -0.801924 17.4961 0.067275 10.5692 -6.38016 3.03842
lowerback -22.2122 1.53003 -2.09433
upperback 5.21108 3.06842 -2.10524
thorax 18.8482 1.26988 -0.148018
lowerneck 15.8459 -4.3213 -7.80959
upperneck 17.2296 -7.46887 6.9972
head 3.23466 -4.02475 3.58093
rclavicle 1.59525e-014 1.68967e-014
rhumerus -21.8814 -62.6866 -62.6034
rradius 32.4793
rwrist 6.54583
rhand -22.0201 22.4864
rfingers 7.12502
rthumb 4.38934 -7.44816
lclavicle 1.59525e-014 1.68967e-014
lhumerus -10.3956 50.7612 67.2422
lradius 41.1065
lwrist 1.55007
lhand -22.2642 31.5963
lfingers 7.12502
lthumb 4.15365 61.5355
rfemur -19.9584 -8.19521 10.1249
rtibia 29.2786
rfoot -16.3391 -14.9636
rtoes -18.9834
lfemur -12.5091 -10.4346 -15.9386
ltibia 19.979
lfoot -26.9826 22.8223
ltoes 1.07072
82
root -0.798892 17.4938 0.0674838 10.5177 -6.22343 2.96193
lowerback -22.3018 1.55708 -1.90989
upperback 5.22434 3.06267 -2.15121
thorax 18.9355 1.2915 -0.307725
lowerneck 15.7323 -4.40642 -7.6209
upperneck 18.4165 -7.47697 5.93123
head 3.58635 -4.03669 3.205
rclavicle 3.61788e-014 -2.04748e-014
rhumerus -21.8039 -63.077 -62.6761
rradius 32.2084
rwrist 6.87909
rhand -21.6555 22.9187
rfingers 7.12502
rthumb 4.74144 -7.00825
lclavicle 3.61788e-014 -2.04748e-014
lhumerus -10.0358 51.06 67.4052
lradius 40.8124
lwrist 1.28206
lhand -22.2033 31.5145
lfingers 7.12502
lthumb 4.21246 61.4526
rfemur -19.8316 -8.4355 10.2061
rtibia 29.2353
rfoot -16.2433 -14.8928
rtoes -19.3101
lfemur -12.4875 -10.6222 -15.8691
ltibia 20.0554
lfoot -26.9052 22.9185
ltoes 0.65419
83
root -0.796601 17.4884 0.0658974 10.4756 -6.0089 3.00637
lowerback -22.3041 1.52662 -1.85449
upperback 5.12965 3.01065 -2.20676
thorax 18.8219 1.28201 -0.424816
lowerneck 15.9888 -4.33273 -7.91002
upperneck 19.5094 -7.39407 5.32838
head 3.88214 -4.03681 3.06388
rclavicle -1.76421e-014 2.38542e-014
rhumerus -22.0841 -63.2681 -62.4677
rradius 32.0277
rwrist 7.25864
rhand -21.4987 23.1556
rfingers 7.12502
rthumb 4.89283 -6.76786
lclavicle -1.76421e-014 2.38542e-014
lhumerus -10.007 51.5139 67.3401
lradius 40.5303
lwrist 0.856182
lhand -22.2671 31.5962
lfingers 7.12502
lthumb 4.15088 61.5355
rfemur -19.7096 -8.73458 10.1449
rtibia 29.2059
rfoot -16.2081 -14.7968
rtoes -19.4251
lfemur -12.4877 -10.4421 -15.9445
ltibia 20.1126
lfoot -26.6867 22.7024
ltoes -0.162138
